<?xml version="1.0" standalone="no"?>
<!DOCTYPE svg PUBLIC "-//W3C//DTD SVG 20010904//EN"
 "http://www.w3.org/TR/2001/REC-SVG-20010904/DTD/svg10.dtd">
<svg version="1.0" xmlns="http://www.w3.org/2000/svg"
 width="1014.000000pt" height="1035.000000pt" viewBox="0 0 1014.000000 1035.000000"
 preserveAspectRatio="xMidYMid meet">

<g transform="translate(0.000000,1035.000000) scale(0.100000,-0.100000)"
fill="#000000" stroke="none">
<path d="M4835 9614 c-783 -38 -1496 -266 -2178 -696 -405 -255 -843 -662
-1132 -1053 -478 -645 -756 -1327 -855 -2101 -94 -733 5 -1527 277 -2214 510
-1290 1672 -2312 3003 -2640 413 -101 940 -153 1333 -130 814 47 1532 284
2233 736 385 248 874 724 1146 1115 376 539 617 1110 733 1734 139 750 82
1572 -157 2265 -229 662 -603 1253 -1099 1735 -752 731 -1685 1153 -2724 1234
-149 12 -476 20 -580 15z m575 -245 c1305 -103 2483 -822 3186 -1943 270 -431
481 -966 573 -1456 48 -259 56 -357 56 -735 0 -376 -8 -485 -56 -765 -94 -550
-323 -1127 -632 -1590 -346 -518 -804 -956 -1326 -1268 -531 -317 -1087 -506
-1706 -578 -210 -25 -680 -25 -890 0 -314 36 -596 99 -900 201 -742 246 -1341
650 -1849 1245 -207 242 -322 408 -477 685 -270 485 -421 955 -494 1535 -22
172 -31 651 -16 832 67 802 344 1540 811 2163 306 408 640 725 1055 1002 776
517 1695 749 2665 672z"/>
<path d="M3440 8329 c-581 -63 -977 -322 -1200 -784 -95 -197 -150 -403 -150
-566 0 -143 58 -365 136 -521 209 -419 729 -800 1320 -966 182 -52 306 -72
490 -82 93 -4 161 -12 180 -21 46 -22 69 -80 69 -174 0 -44 -2 -89 -5 -100 -7
-27 17 -23 98 17 79 37 191 147 245 239 21 35 49 101 64 147 46 148 20 220
-101 274 -46 20 -62 22 -176 19 -393 -13 -493 -4 -730 64 -297 85 -511 205
-690 385 -146 146 -239 301 -294 491 -56 195 -62 425 -13 551 63 164 194 294
417 416 85 46 236 106 293 116 38 7 39 6 139 -93 55 -55 131 -121 169 -147 78
-51 205 -106 291 -125 55 -11 59 -15 97 -74 63 -96 134 -135 251 -135 109 0
267 57 348 124 60 51 158 74 245 58 26 -5 47 -7 47 -3 0 18 -61 70 -95 81 -57
19 -121 7 -240 -45 -162 -71 -257 -71 -309 -2 -34 45 -39 85 -26 185 27 199
-40 374 -192 499 -70 57 -205 127 -298 153 -89 24 -255 33 -380 19z m719 -423
c7 -8 11 -30 9 -48 -6 -69 -98 -57 -98 13 0 43 62 67 89 35z"/>
<path d="M2844 7036 c-3 -7 -4 -35 -2 -62 l3 -49 135 -1 c149 0 208 -13 314
-66 129 -64 187 -135 205 -248 6 -36 13 -154 17 -263 9 -255 6 -247 144 -309
58 -26 144 -56 191 -67 94 -23 227 -28 277 -10 29 10 31 14 36 72 3 34 7 173
9 310 l4 248 42 84 c85 173 229 243 504 248 l117 2 0 63 0 62 -995 0 c-836 0
-996 -2 -1001 -14z"/>
<path d="M5579 7048 c0 -2 -2 -31 -4 -64 l-4 -61 43 4 c59 7 207 -14 259 -36
80 -34 127 -104 127 -187 0 -91 -86 -239 -241 -414 -228 -256 -1005 -1010
-1274 -1234 -192 -161 -325 -266 -335 -266 -7 0 -10 77 -9 222 3 254 6 244
-96 273 -167 49 -359 45 -421 -8 l-25 -22 10 -175 c16 -260 39 -560 47 -600
17 -81 197 -203 350 -235 122 -26 111 -42 118 163 4 97 10 194 14 215 l7 39
115 -108 c63 -59 286 -272 495 -474 209 -201 504 -483 655 -627 490 -466 586
-563 615 -622 67 -135 34 -256 -87 -317 -55 -28 -161 -54 -220 -54 l-38 0 0
-60 0 -60 1115 0 1115 0 0 59 0 60 -47 6 c-362 47 -644 187 -1019 505 -114 97
-1994 1968 -1994 1984 0 5 183 192 408 416 224 223 533 534 687 692 311 317
423 419 632 577 245 185 472 281 664 281 l49 0 0 65 0 65 -855 0 c-470 0 -855
-1 -856 -2z"/>
<path d="M3355 4919 c-296 -286 -382 -566 -230 -747 34 -40 199 -152 357 -241
139 -79 302 -155 497 -233 162 -65 229 -99 263 -135 58 -61 64 -135 16 -209
l-33 -49 3 -175 c1 -96 5 -176 7 -178 9 -9 212 62 290 100 222 112 308 213
309 363 1 62 -4 80 -36 147 -46 92 -140 196 -240 265 -139 96 -423 223 -633
283 -201 57 -376 161 -437 258 -23 36 -23 42 -25 335 0 164 -4 301 -6 304 -3
3 -49 -37 -102 -88z"/>
<path d="M3765 3588 c2 -7 9 -181 15 -386 14 -440 20 -409 -109 -514 -189
-153 -374 -215 -663 -225 l-168 -6 0 -58 0 -59 1000 0 1000 0 0 58 0 59 -162
6 c-259 10 -369 47 -477 163 -68 73 -99 130 -111 210 -4 33 -5 193 -2 357 l7
298 -40 10 c-96 25 -145 40 -214 69 -85 35 -82 34 -76 18z"/>
<path d="M3425 3059 c-401 -245 -713 -370 -1025 -408 -52 -7 -111 -15 -130
-18 l-35 -6 50 -9 c84 -15 360 -12 472 5 244 39 474 115 786 261 94 44 97 46
96 78 -1 66 -17 190 -25 198 -5 5 -88 -40 -189 -101z"/>
</g>
</svg>
